
<svg version="1.1" id="Layer_1" xmlns="http://www.w3.org/2000/svg" xmlns:xlink="http://www.w3.org/1999/xlink" x="0px" y="0px"
	 width="100%" viewBox="0 0 644 244" enable-background="new 0 0 644 244" xml:space="preserve">
<path fill="#FEFEFE" opacity="1.000000" stroke="none"
	d="
M1.000000,76.000000
	C1.000000,51.006718 1.000000,26.013435 1.000000,1.015114
	C215.602280,1.010076 430.204559,1.010076 644.903442,1.010076
	C644.903442,82.246979 644.903442,163.494110 644.903442,245.000000
	C432.643402,245.000000 220.286713,245.000000 7.711116,244.670563
	C8.947298,244.158569 10.421368,244.068985 11.854053,243.776627
	C16.878275,242.751312 21.888239,241.656174 27.209803,240.610413
	C27.923943,240.613251 28.331898,240.593231 29.198128,240.734802
	C34.241814,240.361130 39.330784,242.668335 43.642826,238.443481
	C45.016243,238.375992 46.016693,238.349701 47.343338,238.549103
	C51.838364,238.468826 56.426296,240.532318 60.298771,236.619751
	C61.329342,236.575104 62.015205,236.512695 63.159042,236.618500
	C73.151215,236.056259 82.692856,235.409622 92.216820,234.563919
	C97.948654,234.054932 103.657257,233.269958 109.368668,232.548569
	C119.000511,231.331955 128.647247,230.206818 138.245972,228.765244
	C143.193604,228.022186 148.051285,226.680237 153.250000,225.626007
	C153.951218,225.634750 154.352051,225.626358 155.209778,225.773682
	C160.091537,225.146866 164.516403,224.364304 169.318481,223.611725
	C170.702042,223.604462 171.708405,223.567230 173.165039,223.692337
	C177.397873,223.124146 181.180420,222.393600 185.358932,221.672546
	C187.065353,221.592636 188.375824,221.503220 190.136215,221.590805
	C194.709793,221.044006 198.833435,220.320236 203.300995,219.611389
	C204.326767,219.548630 205.008652,219.470932 206.146606,219.572235
	C216.318954,219.066223 226.044632,218.490585 235.747803,217.653946
	C241.300125,217.175217 246.817230,216.282593 252.347717,215.557343
	C261.827972,214.314163 271.325989,213.185822 280.777527,211.752258
	C285.876801,210.978836 290.895233,209.672516 296.297729,208.632294
	C297.340973,208.636505 298.036621,208.615005 299.190216,208.743652
	C303.795105,208.385025 308.444611,210.585815 312.325378,206.634354
	C313.703247,206.600479 314.704773,206.544708 316.160217,206.654251
	C320.418640,206.221634 324.836365,208.840302 328.333435,204.668518
	C329.706696,204.601440 330.703857,204.522949 332.157288,204.615234
	C337.481567,203.972672 342.349579,203.159302 347.516418,202.307953
	C348.215485,202.237747 348.615753,202.205536 349.333496,202.422455
	C359.345184,201.929901 369.046906,201.272888 378.730804,200.414474
	C384.466614,199.906036 390.176910,199.101059 395.894012,198.391647
	C407.852844,196.907730 419.818207,195.469498 431.756531,193.834335
	C433.882416,193.543152 435.890533,192.391968 438.330688,191.657745
	C439.714386,191.638519 440.720367,191.599442 442.183472,191.712769
	C446.917297,191.436310 451.680542,193.551865 455.629578,189.410767
	C457.006714,189.332321 458.009918,189.296310 459.335602,189.493439
	C463.843903,189.515869 468.411072,191.496536 472.297913,187.599197
	C473.327118,187.544952 474.011658,187.478546 475.157318,187.586960
	C485.150543,187.038849 494.690186,186.401459 504.211945,185.561005
	C509.946259,185.054886 515.658142,184.275421 521.370361,183.542923
	C530.848938,182.327454 540.340698,181.187607 549.785034,179.742798
	C554.555908,179.012939 559.235168,177.684479 564.333618,176.652023
	C565.719177,176.653961 566.726929,176.630585 568.193481,176.753113
	C572.792114,176.352417 577.456970,178.597382 581.321655,174.610199
	C582.700684,174.589142 583.703186,174.544464 585.161011,174.660858
	C589.417297,174.215836 593.847961,176.863785 597.324097,172.643265
	C598.700867,172.581284 599.700317,172.505417 601.158447,172.602570
	C612.586121,171.594055 623.536499,169.775009 634.530701,169.454147
	C641.918152,169.238510 641.101624,165.199493 641.095276,160.427032
	C641.031128,112.309280 641.056580,64.191422 641.056702,16.073597
	C641.056702,13.076640 641.239197,10.062033 640.954712,7.092227
	C640.854675,6.048109 639.607300,5.113914 638.423889,4.091396
	C630.343506,4.087440 622.723145,4.121612 614.636719,4.068679
	C604.752136,4.760945 595.325623,5.460209 585.922424,6.394115
	C584.245422,6.560673 582.664978,7.700023 580.694092,8.366348
	C579.656555,8.368788 578.964783,8.395073 577.818604,8.268784
	C573.259583,8.880033 569.155029,9.643858 564.674500,10.383842
	C563.298462,10.414360 562.298340,10.468719 560.846191,10.356201
	C556.279419,10.934449 552.164612,11.679574 547.704590,12.409625
	C546.671997,12.444451 545.984619,12.494350 544.838623,12.379059
	C540.912415,12.353123 537.422852,12.292293 533.981384,12.669803
	C524.332520,13.728217 514.709045,15.015788 505.064911,16.120031
	C497.530701,16.982695 489.970764,17.622982 482.439758,18.510620
	C469.971252,19.980207 457.508606,21.507700 445.066040,23.178841
	C443.328766,23.412172 441.719574,24.599121 439.653015,25.333897
	C437.934570,25.378105 436.614197,25.433050 434.843506,25.323055
	C430.421722,25.524530 425.972748,23.538769 422.448975,27.552982
	C421.204620,27.558462 420.247345,27.535622 418.830017,27.352114
	C413.767548,27.633080 408.682556,25.323069 404.405579,29.626320
	C403.369293,29.707197 402.676727,29.741955 401.659729,29.538757
	C391.804626,30.005970 382.266144,30.621519 372.746216,31.449841
	C367.014465,31.948555 361.305389,32.731274 355.596985,33.470322
	C346.289459,34.675335 336.971375,35.822197 327.695953,37.243023
	C322.442902,38.047695 317.266022,39.349483 311.756409,40.405403
	C311.059601,40.396927 310.661224,40.410416 309.804352,40.262253
	C304.876465,40.652458 299.914185,38.327541 295.669128,42.358429
	C294.296997,42.402740 293.300171,42.468086 291.854065,42.363213
	C287.618134,42.920109 283.831451,43.647224 279.669006,44.358894
	C278.295380,44.414814 277.297607,44.486176 275.843933,44.387753
	C270.737762,44.407364 265.767853,42.755962 261.456238,46.630108
	C260.768250,46.698242 260.373657,46.722202 259.651855,46.511940
	C255.678467,46.276081 251.983887,45.889603 248.394592,46.340763
	C234.354019,48.105591 220.365097,50.284180 206.320938,52.016853
	C195.989899,53.291428 185.594894,54.041798 175.249573,55.212807
	C173.786804,55.378380 172.444336,56.606575 170.648254,57.334511
	C168.928925,57.374084 167.607559,57.422077 165.833008,57.309898
	C161.267914,57.899315 157.156006,58.648899 152.699219,59.379246
	C151.667130,59.414387 150.979889,59.468769 149.838181,59.356567
	C145.216263,59.616512 140.589050,57.433315 136.663757,61.353981
	C135.295532,61.435139 134.302689,61.527210 132.853317,61.434799
	C122.856834,61.970520 113.309250,62.604008 103.779808,63.443375
	C98.045868,63.948429 92.335007,64.733658 86.622971,65.464890
	C77.146332,66.678032 67.655899,67.810326 58.213657,69.253922
	C53.443401,69.983231 48.766033,71.320107 43.697906,72.360596
	C42.651516,72.358978 41.953876,72.379036 40.800873,72.243607
	C36.085476,72.597565 31.294170,70.372498 27.427120,74.564011
	C25.840590,74.568970 24.571083,74.546288 22.849812,74.354889
	C18.280317,74.927818 14.162591,75.669472 9.697151,76.394012
	C8.660303,76.449234 7.971169,76.521568 6.859632,76.428772
	C4.624818,76.175766 2.812409,76.087883 1.000000,76.000000
z"/>
<path fill="#A9C4D8" opacity="1.000000" stroke="none"
	d="
M1.000000,76.468658
	C2.812409,76.087883 4.624818,76.175766 6.669315,76.708557
	C3.296823,78.194405 3.012378,80.873596 3.017070,84.118225
	C3.090054,134.592926 3.066075,185.067749 3.069443,235.542557
	C3.069891,242.269943 3.867089,242.668167 10.746893,241.700729
	C16.079205,240.950882 21.514242,240.931580 26.903618,240.587555
	C21.888239,241.656174 16.878275,242.751312 11.854053,243.776627
	C10.421368,244.068985 8.947298,244.158569 7.246103,244.670563
	C5.005012,245.000000 3.010024,245.000000 1.000000,245.000000
	C1.000000,188.979111 1.000000,132.958206 1.000000,76.468658
z"/>
<path fill="#4791C7" opacity="1.000000" stroke="none"
	d="
M27.209801,240.610397
	C21.514242,240.931580 16.079205,240.950882 10.746893,241.700729
	C3.867089,242.668167 3.069891,242.269943 3.069443,235.542557
	C3.066075,185.067749 3.090054,134.592926 3.017070,84.118225
	C3.012378,80.873596 3.296823,78.194405 7.091720,76.873680
	C7.971169,76.521568 8.660303,76.449234 10.027641,76.601715
	C14.904423,76.058891 19.103001,75.291252 23.301579,74.523605
	C24.571083,74.546288 25.840590,74.568970 27.875740,74.720505
	C32.846336,74.032608 37.051289,73.215851 41.256241,72.399094
	C41.953876,72.379036 42.651516,72.358978 44.018608,72.581367
	C55.205589,71.775070 65.736725,70.845840 76.237450,69.649582
	C91.984566,67.855652 107.718620,65.938911 123.438507,63.920780
	C126.772499,63.492760 130.021637,62.403755 133.309860,61.619286
	C134.302689,61.527210 135.295532,61.435139 136.984192,61.574051
	C141.884232,61.044407 146.088440,60.283775 150.292664,59.523148
	C150.979889,59.468769 151.667130,59.414387 153.027924,59.590179
	C157.896393,59.036919 162.091293,58.253490 166.286179,57.470062
	C167.607559,57.422077 168.928925,57.374084 170.968750,57.553219
	C179.572906,56.973171 187.468918,56.254597 195.342117,55.339809
	C210.293655,53.602585 225.242371,51.832733 240.171356,49.913712
	C246.800110,49.061634 253.378036,47.814163 259.979034,46.746166
	C260.373657,46.722202 260.768250,46.698242 261.903625,46.784431
	C267.196167,46.115570 271.747986,45.336555 276.299805,44.557541
	C277.297607,44.486176 278.295380,44.414814 279.988281,44.574364
	C284.556702,44.047997 288.430023,43.290714 292.303314,42.533432
	C293.300171,42.468086 294.296997,42.402740 295.994995,42.575634
	C301.218353,42.017216 305.740570,41.220562 310.262817,40.423912
	C310.661224,40.410416 311.059601,40.396927 312.082520,40.622856
	C315.360687,40.828911 318.044037,41.040623 320.663361,40.723431
	C341.676544,38.178837 362.685760,35.597279 383.677338,32.881363
	C389.810852,32.087807 395.883545,30.824635 401.984131,29.776714
	C402.676727,29.741955 403.369293,29.707197 404.857544,29.778671
	C410.198853,29.094196 414.744446,28.303488 419.290070,27.512779
	C420.247345,27.535622 421.204620,27.558462 422.895447,27.712795
	C427.517273,27.058855 431.405579,26.273424 435.293854,25.487995
	C436.614197,25.433050 437.934570,25.378105 439.971985,25.554836
	C446.607208,25.171110 452.527069,24.571041 458.443237,23.936863
	C468.332916,22.876757 478.227570,21.857475 488.106964,20.707935
	C504.223602,18.832645 520.338196,16.932743 536.432678,14.879218
	C539.437927,14.495773 542.344849,13.342341 545.297180,12.544252
	C545.984619,12.494350 546.671997,12.444451 548.031555,12.615919
	C552.901855,12.065884 557.100037,11.294479 561.298218,10.523077
	C562.298340,10.468719 563.298462,10.414360 565.002075,10.594967
	C569.894714,10.027075 574.083862,9.224217 578.273071,8.421358
	C578.964783,8.395073 579.656555,8.368788 581.019226,8.590285
	C590.494324,8.021626 599.310852,7.314300 608.094421,6.316948
	C610.481567,6.045895 612.769409,4.900096 615.102783,4.155780
	C622.723145,4.121612 630.343506,4.087440 638.472290,4.548083
	C638.993652,57.205276 639.006714,109.367653 639.018799,161.530029
	C639.018982,162.196564 639.268677,163.055374 638.948669,163.493332
	C638.011841,164.775635 636.976379,166.744644 635.748230,166.932480
	C627.561401,168.184738 619.298889,168.932266 611.094055,170.080261
	C607.588318,170.570770 604.162170,171.629196 600.699829,172.429565
	C599.700317,172.505417 598.700867,172.581284 597.005554,172.428650
	C592.441711,172.966705 588.573730,173.733246 584.705688,174.499802
	C583.703186,174.544464 582.700684,174.589142 580.994751,174.399292
	C576.105713,174.978912 571.920227,175.793045 567.734680,176.607178
	C566.726929,176.630585 565.719177,176.653961 564.013062,176.430359
	C550.015686,177.598373 536.709839,178.953003 523.419495,180.445602
	C510.455902,181.901505 497.497894,183.418945 484.560516,185.087967
	C481.227936,185.517899 477.981964,186.619247 474.696228,187.412155
	C474.011658,187.478546 473.327118,187.544952 471.967834,187.391327
	C467.199799,187.867630 463.106445,188.563965 459.013123,189.260300
	C458.009918,189.296310 457.006714,189.332321 455.181580,189.252426
	C450.148590,189.944458 445.937469,190.752411 441.726379,191.560364
	C440.720367,191.599442 439.714386,191.638519 438.012695,191.434204
	C428.929565,191.969131 420.523376,192.587021 412.158691,193.561050
	C397.375610,195.282425 382.608276,197.149185 367.853790,199.101669
	C361.549438,199.935928 355.293793,201.138229 349.016022,202.173309
	C348.615753,202.205536 348.215485,202.237747 347.059387,202.169342
	C341.436066,202.860641 336.568573,203.652542 331.701050,204.444458
	C330.703857,204.522949 329.706696,204.601440 328.020874,204.447632
	C323.456909,204.973190 319.581604,205.731064 315.706268,206.488953
	C314.704773,206.544708 313.703247,206.600479 312.001251,206.418320
	C307.111267,206.984772 302.921783,207.789139 298.732300,208.593506
	C298.036621,208.615005 297.340973,208.636505 295.974609,208.408768
	C286.921906,208.942688 278.523468,209.582657 270.161133,210.538345
	C251.948090,212.619843 233.746201,214.804764 215.557800,217.091049
	C212.224899,217.510010 208.977432,218.608444 205.690521,219.393234
	C205.008652,219.470932 204.326767,219.548630 202.973663,219.398300
	C198.097046,219.918121 193.891678,220.665970 189.686295,221.413818
	C188.375824,221.503220 187.065353,221.592636 185.041779,221.451691
	C180.457367,221.990875 176.586060,222.760437 172.714767,223.529984
	C171.708405,223.567230 170.702042,223.604462 168.995422,223.400726
	C163.781082,223.979141 159.266983,224.798553 154.752884,225.617950
	C154.352051,225.626358 153.951218,225.634750 152.926743,225.402435
	C141.786407,226.205521 131.257339,227.139282 120.755867,228.318542
	C104.506866,230.143219 88.268311,232.068970 72.045799,234.114243
	C68.882988,234.513016 65.813568,235.652466 62.701073,236.450287
	C62.015205,236.512695 61.329342,236.575104 59.971382,236.407440
	C55.205238,236.892700 51.111191,237.608047 47.017143,238.323395
	C46.016693,238.349701 45.016243,238.375992 43.190151,238.275482
	C37.822960,238.956863 33.281406,239.765045 28.739853,240.573212
	C28.331898,240.593231 27.923943,240.613251 27.209801,240.610397
M101.874207,139.235168
	C107.013878,120.918091 96.071098,105.733574 77.218925,106.134193
	C64.293755,106.408859 51.391064,108.037994 38.502090,109.303726
	C37.059338,109.445404 34.604698,111.163551 34.600998,112.157997
	C34.576275,118.805473 32.665150,125.756165 37.920898,131.700027
	C40.980473,135.160187 43.268017,139.307541 45.865047,143.171173
	C50.662567,150.308456 50.650959,150.316269 42.045097,151.131424
	C34.577717,151.838730 34.316334,152.119873 34.314480,159.578049
	C34.311127,173.073532 34.313442,186.569031 34.312752,200.064514
	C34.312160,211.639709 34.283943,211.365707 45.939114,210.182053
	C50.881741,209.680084 51.978741,207.507019 51.887260,203.098373
	C51.676460,192.939499 52.025822,182.767242 51.727196,172.612793
	C51.600929,168.319336 53.145725,166.590866 57.263542,166.289871
	C61.398163,165.987625 65.558128,165.551025 69.612190,164.714050
	C84.258148,161.690445 96.857407,155.870743 101.874207,139.235168
M240.472031,171.336502
	C236.168869,170.873001 231.135223,170.943817 229.439453,166.140396
	C227.477127,160.582001 223.660950,160.727936 219.247482,161.261887
	C217.268463,161.501328 215.076126,161.322372 213.382492,162.152893
	C212.014297,162.823822 210.239639,164.838043 210.377991,166.060257
	C211.352646,174.671173 215.278168,181.970963 223.419678,185.379211
	C242.489868,193.362442 267.953339,185.430161 273.405457,161.866592
	C277.209625,145.425125 270.789917,130.270569 250.993637,127.669205
	C246.733444,127.109383 242.360992,127.375710 238.039490,127.318771
	C233.803406,127.262947 230.697128,125.303680 228.733292,121.659218
	C225.319962,115.324806 228.783646,105.939949 235.694275,102.566368
	C245.284088,97.884880 254.954437,101.134949 256.492767,107.940758
	C257.171234,110.942429 259.076935,111.021584 261.351074,110.670113
	C264.634827,110.162628 267.997650,109.846588 271.128571,108.835365
	C272.301788,108.456429 273.825073,106.212959 273.640900,105.068764
	C272.614990,98.696075 270.077271,92.948730 264.705750,88.939301
	C248.994324,77.211937 223.348831,84.201073 214.038162,102.706085
	C205.784836,119.109596 210.012070,135.253708 224.958344,141.540649
	C229.925369,143.629929 235.893204,143.944794 241.408813,143.971436
	C248.260422,144.004578 254.245712,146.832718 256.422089,152.460144
	C258.603851,158.101425 256.677063,163.932205 250.563324,167.915009
	C247.887817,169.657990 244.438736,170.213501 240.472031,171.336502
M359.166687,139.500000
	C359.166687,146.660950 359.123444,153.822235 359.175781,160.982803
	C359.281250,175.408920 357.192902,173.071533 371.877350,171.422043
	C375.558014,171.008591 376.882935,169.461044 376.792694,165.617828
	C376.534729,154.632706 376.802521,143.636200 376.659302,132.646835
	C376.615265,129.268967 377.765778,128.130783 381.189453,127.793251
	C390.262604,126.898819 399.300659,125.598618 408.321991,124.253815
	C411.903107,123.719978 416.980072,123.743729 418.529266,121.525513
	C420.344849,118.925812 419.059845,114.159805 419.115356,110.333389
	C419.120178,110.000885 419.228394,109.501122 419.057800,109.361984
	C417.874603,108.396858 416.536499,106.613037 415.420074,106.730240
	C403.881012,107.941597 392.368042,109.414299 380.863403,110.932335
	C377.795135,111.337189 376.600677,110.308418 376.675415,107.197502
	C376.811340,101.538597 376.859802,95.868927 376.658447,90.213943
	C376.544861,87.023972 377.869232,85.760147 380.881470,85.405434
	C392.747345,84.008125 404.569733,82.149101 416.465393,81.123878
	C427.945587,80.134460 427.976501,80.492874 427.920746,68.923691
	C427.893188,63.208870 427.266205,62.753407 421.506256,63.452141
	C402.728607,65.730034 383.955017,68.053841 365.150848,70.091858
	C360.526825,70.593010 359.023224,72.386261 359.074677,77.049721
	C359.300751,97.530991 359.168976,118.016212 359.166687,139.500000
M117.181366,141.033539
	C117.389381,141.838120 117.676460,142.631378 117.793655,143.448975
	C119.856636,157.840881 134.013916,169.594040 149.562973,169.927887
	C172.913605,170.429260 195.456955,148.638000 193.032913,123.602722
	C191.240662,105.092407 176.152512,92.638596 158.299988,93.526344
	C133.873932,94.740997 115.013138,116.520996 117.181366,141.033539
M517.592590,84.090622
	C512.991455,63.774357 499.255005,53.257191 479.275635,55.247757
	C470.118286,56.160107 462.369080,60.600857 455.362091,66.477432
	C444.222229,75.820129 438.173340,95.045273 442.768890,108.193291
	C449.766418,128.213425 468.408325,135.079956 487.608032,129.019073
	C507.067444,122.876221 518.987366,103.371117 517.592590,84.090622
M550.483398,115.096825
	C555.324158,116.676170 560.067322,119.128510 565.022705,119.682388
	C585.510315,121.972351 601.326111,108.051521 608.164490,92.974632
	C615.857849,76.012810 609.780212,56.737438 593.742249,47.665318
	C581.821045,40.921902 564.392029,43.269974 551.665222,53.246986
	C531.918274,68.727318 527.851990,99.803925 550.483398,115.096825
M323.693634,172.995041
	C323.697327,147.505402 323.823914,122.014664 323.596954,96.527069
	C323.553589,91.656311 325.318054,89.938995 329.874847,89.842918
	C333.523682,89.765976 337.183502,89.364189 340.795105,88.819290
	C342.082306,88.625076 344.226532,87.676651 344.295990,86.918297
	C344.671600,82.817062 344.628754,78.661392 344.400848,74.542702
	C344.374298,74.063293 342.266479,73.231857 341.208313,73.346466
	C324.041077,75.205818 306.879791,77.129158 289.743286,79.248917
	C288.086517,79.453857 285.321259,80.981125 285.262573,82.018532
	C285.025269,86.214355 285.607727,90.462967 286.073059,94.671593
	C286.094421,94.864944 287.922241,95.007347 288.886353,94.921677
	C292.853851,94.569130 296.879517,94.437836 300.757751,93.624222
	C305.578613,92.612846 306.355591,94.685287 306.327332,98.904709
	C306.175537,121.561157 306.254730,144.219147 306.254364,166.876617
	C306.254150,180.134354 307.974854,181.403580 320.679962,177.085602
	C321.903046,176.669922 322.691589,174.975601 323.693634,172.995041
M146.658875,181.126831
	C141.558105,181.763702 136.473526,182.631683 131.353256,182.989899
	C120.288315,183.763947 120.521156,183.663498 120.218483,194.853058
	C120.085518,199.768951 121.645798,201.392685 126.443848,200.772446
	C143.550079,198.561081 160.706314,196.719131 177.786133,194.326889
	C189.190247,192.729614 189.051514,192.419739 188.834717,180.740189
	C188.769547,177.228882 187.863281,176.203339 184.108139,176.728287
	C171.961929,178.426300 159.750870,179.660568 146.658875,181.126831
M566.013794,148.546341
	C576.049072,147.324921 586.061584,145.846497 596.125916,144.952209
	C606.826233,144.001404 606.847717,144.243134 606.835327,133.873123
	C606.826965,126.859627 606.569641,126.440079 599.471985,127.282265
	C582.525269,129.293121 565.584961,131.381271 548.680176,133.714127
	C537.959106,135.193619 538.129028,135.413910 538.276672,146.497589
	C538.327637,150.327164 539.733032,151.501709 543.371704,151.054153
	C550.610840,150.163788 557.874512,149.472916 566.013794,148.546341
M493.417542,140.121246
	C479.903290,141.705917 466.380371,143.221069 452.878082,144.901825
	C445.022308,145.879700 445.037201,145.999207 445.032196,153.531067
	C445.026276,162.412338 445.062042,162.740021 453.986572,161.765350
	C469.485870,160.072632 484.900635,157.557617 500.416870,156.081894
	C515.576904,154.640015 512.520142,155.779160 512.963623,141.743927
	C513.053711,138.891617 511.961853,137.743408 509.150879,138.121201
	C504.213287,138.784760 499.270660,139.410736 493.417542,140.121246
z"/>
<path fill="#A9C4D8" opacity="1.000000" stroke="none"
	d="
M601.158447,172.602570
	C604.162170,171.629196 607.588318,170.570770 611.094055,170.080261
	C619.298889,168.932266 627.561401,168.184738 635.748230,166.932480
	C636.976379,166.744644 638.011841,164.775635 638.948669,163.493332
	C639.268677,163.055374 639.018982,162.196564 639.018799,161.530029
	C639.006714,109.367653 638.993652,57.205276 638.932251,4.586212
	C639.607300,5.113914 640.854675,6.048109 640.954712,7.092227
	C641.239197,10.062033 641.056702,13.076640 641.056702,16.073597
	C641.056580,64.191422 641.031128,112.309280 641.095276,160.427032
	C641.101624,165.199493 641.918152,169.238510 634.530701,169.454147
	C623.536499,169.775009 612.586121,171.594055 601.158447,172.602570
z"/>
<path fill="#A9C4D8" opacity="1.000000" stroke="none"
	d="
M544.838623,12.379061
	C542.344849,13.342341 539.437927,14.495773 536.432678,14.879218
	C520.338196,16.932743 504.223602,18.832645 488.106964,20.707935
	C478.227570,21.857475 468.332916,22.876757 458.443237,23.936863
	C452.527069,24.571041 446.607208,25.171110 440.370056,25.565575
	C441.719574,24.599121 443.328766,23.412172 445.066040,23.178841
	C457.508606,21.507700 469.971252,19.980207 482.439758,18.510620
	C489.970764,17.622982 497.530701,16.982695 505.064911,16.120031
	C514.709045,15.015788 524.332520,13.728217 533.981384,12.669803
	C537.422852,12.292293 540.912415,12.353123 544.838623,12.379061
z"/>
<path fill="#A9C4D8" opacity="1.000000" stroke="none"
	d="
M401.659729,29.538757
	C395.883545,30.824635 389.810852,32.087807 383.677338,32.881363
	C362.685760,35.597279 341.676544,38.178837 320.663361,40.723431
	C318.044037,41.040623 315.360687,40.828911 312.380920,40.644821
	C317.266022,39.349483 322.442902,38.047695 327.695953,37.243023
	C336.971375,35.822197 346.289459,34.675335 355.596985,33.470322
	C361.305389,32.731274 367.014465,31.948555 372.746216,31.449841
	C382.266144,30.621519 391.804626,30.005970 401.659729,29.538757
z"/>
<path fill="#A9C4D8" opacity="1.000000" stroke="none"
	d="
M349.333496,202.422455
	C355.293793,201.138229 361.549438,199.935928 367.853790,199.101669
	C382.608276,197.149185 397.375610,195.282425 412.158691,193.561050
	C420.523376,192.587021 428.929565,191.969131 437.635040,191.414368
	C435.890533,192.391968 433.882416,193.543152 431.756531,193.834335
	C419.818207,195.469498 407.852844,196.907730 395.894012,198.391647
	C390.176910,199.101059 384.466614,199.906036 378.730804,200.414474
	C369.046906,201.272888 359.345184,201.929901 349.333496,202.422455
z"/>
<path fill="#A9C4D8" opacity="1.000000" stroke="none"
	d="
M63.159042,236.618500
	C65.813568,235.652466 68.882988,234.513016 72.045799,234.114243
	C88.268311,232.068970 104.506866,230.143219 120.755867,228.318542
	C131.257339,227.139282 141.786407,226.205521 152.626358,225.385315
	C148.051285,226.680237 143.193604,228.022186 138.245972,228.765244
	C128.647247,230.206818 119.000511,231.331955 109.368668,232.548569
	C103.657257,233.269958 97.948654,234.054932 92.216820,234.563919
	C82.692856,235.409622 73.151215,236.056259 63.159042,236.618500
z"/>
<path fill="#A9C4D8" opacity="1.000000" stroke="none"
	d="
M206.146606,219.572235
	C208.977432,218.608444 212.224899,217.510010 215.557800,217.091049
	C233.746201,214.804764 251.948090,212.619843 270.161133,210.538345
	C278.523468,209.582657 286.921906,208.942688 295.627045,208.383072
	C290.895233,209.672516 285.876801,210.978836 280.777527,211.752258
	C271.325989,213.185822 261.827972,214.314163 252.347717,215.557343
	C246.817230,216.282593 241.300125,217.175217 235.747803,217.653946
	C226.044632,218.490585 216.318954,219.066223 206.146606,219.572235
z"/>
<path fill="#A9C4D8" opacity="1.000000" stroke="none"
	d="
M475.157318,187.586960
	C477.981964,186.619247 481.227936,185.517899 484.560516,185.087967
	C497.497894,183.418945 510.455902,181.901505 523.419495,180.445602
	C536.709839,178.953003 550.015686,177.598373 563.635315,176.405029
	C559.235168,177.684479 554.555908,179.012939 549.785034,179.742798
	C540.340698,181.187607 530.848938,182.327454 521.370361,183.542923
	C515.658142,184.275421 509.946259,185.054886 504.211945,185.561005
	C494.690186,186.401459 485.150543,187.038849 475.157318,187.586960
z"/>
<path fill="#A9C4D8" opacity="1.000000" stroke="none"
	d="
M132.853317,61.434803
	C130.021637,62.403755 126.772499,63.492760 123.438507,63.920780
	C107.718620,65.938911 91.984566,67.855652 76.237450,69.649582
	C65.736725,70.845840 55.205589,71.775070 44.367363,72.603043
	C48.766033,71.320107 53.443401,69.983231 58.213657,69.253922
	C67.655899,67.810326 77.146332,66.678032 86.622971,65.464890
	C92.335007,64.733658 98.045868,63.948429 103.779808,63.443375
	C113.309250,62.604008 122.856834,61.970520 132.853317,61.434803
z"/>
<path fill="#A9C4D8" opacity="1.000000" stroke="none"
	d="
M259.651855,46.511944
	C253.378036,47.814163 246.800110,49.061634 240.171356,49.913712
	C225.242371,51.832733 210.293655,53.602585 195.342117,55.339809
	C187.468918,56.254597 179.572906,56.973171 171.366699,57.561638
	C172.444336,56.606575 173.786804,55.378380 175.249573,55.212807
	C185.594894,54.041798 195.989899,53.291428 206.320938,52.016853
	C220.365097,50.284180 234.354019,48.105591 248.394592,46.340763
	C251.983887,45.889603 255.678467,46.276081 259.651855,46.511944
z"/>
<path fill="#A9C4D8" opacity="1.000000" stroke="none"
	d="
M614.636719,4.068675
	C612.769409,4.900096 610.481567,6.045895 608.094421,6.316948
	C599.310852,7.314300 590.494324,8.021626 581.365112,8.614130
	C582.664978,7.700023 584.245422,6.560673 585.922424,6.394115
	C595.325623,5.460209 604.752136,4.760945 614.636719,4.068675
z"/>
<path fill="#A9C4D8" opacity="1.000000" stroke="none"
	d="
M309.804352,40.262253
	C305.740570,41.220562 301.218353,42.017216 296.370239,42.596664
	C299.914185,38.327541 304.876465,40.652458 309.804352,40.262253
z"/>
<path fill="#A9C4D8" opacity="1.000000" stroke="none"
	d="
M332.157288,204.615234
	C336.568573,203.652542 341.436066,202.860641 346.760590,202.207336
	C342.349579,203.159302 337.481567,203.972672 332.157288,204.615234
z"/>
<path fill="#A9C4D8" opacity="1.000000" stroke="none"
	d="
M29.198130,240.734802
	C33.281406,239.765045 37.822960,238.956863 42.817184,238.316681
	C39.330784,242.668335 34.241814,240.361130 29.198130,240.734802
z"/>
<path fill="#A9C4D8" opacity="1.000000" stroke="none"
	d="
M418.830017,27.352112
	C414.744446,28.303488 410.198853,29.094196 405.201233,29.732553
	C408.682556,25.323069 413.767548,27.633080 418.830017,27.352112
z"/>
<path fill="#A9C4D8" opacity="1.000000" stroke="none"
	d="
M155.209778,225.773682
	C159.266983,224.798553 163.781082,223.979141 168.618225,223.370743
	C164.516403,224.364304 160.091537,225.146866 155.209778,225.773682
z"/>
<path fill="#A9C4D8" opacity="1.000000" stroke="none"
	d="
M299.190216,208.743637
	C302.921783,207.789139 307.111267,206.984772 311.624878,206.396423
	C308.444611,210.585815 303.795105,208.385025 299.190216,208.743637
z"/>
<path fill="#A9C4D8" opacity="1.000000" stroke="none"
	d="
M47.343338,238.549103
	C51.111191,237.608047 55.205238,236.892700 59.626678,236.389679
	C56.426296,240.532318 51.838364,238.468826 47.343338,238.549103
z"/>
<path fill="#A9C4D8" opacity="1.000000" stroke="none"
	d="
M568.193481,176.753098
	C571.920227,175.793045 576.105713,174.978912 580.618164,174.375671
	C577.456970,178.597382 572.792114,176.352417 568.193481,176.753098
z"/>
<path fill="#A9C4D8" opacity="1.000000" stroke="none"
	d="
M459.335602,189.493439
	C463.106445,188.563965 467.199799,187.867630 471.623169,187.379181
	C468.411072,191.496536 463.843903,189.515869 459.335602,189.493439
z"/>
<path fill="#A9C4D8" opacity="1.000000" stroke="none"
	d="
M190.136215,221.590805
	C193.891678,220.665970 198.097046,219.918121 202.629761,219.383362
	C198.833435,220.320236 194.709793,221.044006 190.136215,221.590805
z"/>
<path fill="#A9C4D8" opacity="1.000000" stroke="none"
	d="
M40.800873,72.243607
	C37.051289,73.215851 32.846336,74.032608 28.192764,74.692871
	C31.294170,70.372498 36.085476,72.597565 40.800873,72.243607
z"/>
<path fill="#A9C4D8" opacity="1.000000" stroke="none"
	d="
M442.183472,191.712769
	C445.937469,190.752411 450.148590,189.944458 454.807678,189.294861
	C451.680542,193.551865 446.917297,191.436310 442.183472,191.712769
z"/>
<path fill="#A9C4D8" opacity="1.000000" stroke="none"
	d="
M275.843933,44.387756
	C271.747986,45.336555 267.196167,46.115570 262.196991,46.740257
	C265.767853,42.755962 270.737762,44.407364 275.843933,44.387756
z"/>
<path fill="#A9C4D8" opacity="1.000000" stroke="none"
	d="
M577.818604,8.268785
	C574.083862,9.224217 569.894714,10.027075 565.377930,10.618807
	C569.155029,9.643858 573.259583,8.880033 577.818604,8.268785
z"/>
<path fill="#A9C4D8" opacity="1.000000" stroke="none"
	d="
M22.849812,74.354889
	C19.103001,75.291252 14.904423,76.058891 10.375355,76.618828
	C14.162591,75.669472 18.280317,74.927818 22.849812,74.354889
z"/>
<path fill="#A9C4D8" opacity="1.000000" stroke="none"
	d="
M165.833008,57.309898
	C162.091293,58.253490 157.896393,59.036919 153.372803,59.609413
	C157.156006,58.648899 161.267914,57.899315 165.833008,57.309898
z"/>
<path fill="#A9C4D8" opacity="1.000000" stroke="none"
	d="
M149.838181,59.356560
	C146.088440,60.283775 141.884232,61.044407 137.359589,61.584969
	C140.589050,57.433315 145.216263,59.616512 149.838181,59.356560
z"/>
<path fill="#A9C4D8" opacity="1.000000" stroke="none"
	d="
M585.161011,174.660858
	C588.573730,173.733246 592.441711,172.966705 596.628296,172.414764
	C593.847961,176.863785 589.417297,174.215836 585.161011,174.660858
z"/>
<path fill="#A9C4D8" opacity="1.000000" stroke="none"
	d="
M560.846191,10.356199
	C557.100037,11.294479 552.901855,12.065884 548.376709,12.630993
	C552.164612,11.679574 556.279419,10.934449 560.846191,10.356199
z"/>
<path fill="#A9C4D8" opacity="1.000000" stroke="none"
	d="
M316.160217,206.654236
	C319.581604,205.731064 323.456909,204.973190 327.644836,204.436203
	C324.836365,208.840302 320.418640,206.221634 316.160217,206.654236
z"/>
<path fill="#A9C4D8" opacity="1.000000" stroke="none"
	d="
M291.854065,42.363213
	C288.430023,43.290714 284.556702,44.047997 280.364105,44.589806
	C283.831451,43.647224 287.618134,42.920109 291.854065,42.363213
z"/>
<path fill="#A9C4D8" opacity="1.000000" stroke="none"
	d="
M173.165039,223.692337
	C176.586060,222.760437 180.457367,221.990875 184.645813,221.442169
	C181.180420,222.393600 177.397873,223.124146 173.165039,223.692337
z"/>
<path fill="#A9C4D8" opacity="1.000000" stroke="none"
	d="
M434.843506,25.323055
	C431.405579,26.273424 427.517273,27.058855 423.182556,27.684473
	C425.972748,23.538769 430.421722,25.524530 434.843506,25.323055
z"/>
<path fill="#F6F8FA" opacity="1.000000" stroke="none"
	d="
M101.783195,139.634705
	C96.857407,155.870743 84.258148,161.690445 69.612190,164.714050
	C65.558128,165.551025 61.398163,165.987625 57.263542,166.289871
	C53.145725,166.590866 51.600929,168.319336 51.727196,172.612793
	C52.025822,182.767242 51.676460,192.939499 51.887260,203.098373
	C51.978741,207.507019 50.881741,209.680084 45.939114,210.182053
	C34.283943,211.365707 34.312160,211.639709 34.312752,200.064514
	C34.313442,186.569031 34.311127,173.073532 34.314480,159.578049
	C34.316334,152.119873 34.577717,151.838730 42.045097,151.131424
	C50.650959,150.316269 50.662567,150.308456 45.865047,143.171173
	C43.268017,139.307541 40.980473,135.160187 37.920898,131.700027
	C32.665150,125.756165 34.576275,118.805473 34.600998,112.157997
	C34.604698,111.163551 37.059338,109.445404 38.502090,109.303726
	C51.391064,108.037994 64.293755,106.408859 77.218925,106.134193
	C96.071098,105.733574 107.013878,120.918091 101.783195,139.634705
M79.576180,144.212997
	C84.584686,141.089951 87.015533,136.559021 85.831398,130.770004
	C84.700150,125.239601 80.103951,122.966728 75.145828,122.685280
	C69.434555,122.361061 63.650414,123.082718 57.929935,123.664795
	C57.525764,123.705925 56.675713,126.775566 57.240963,127.691460
	C60.190468,132.470642 63.542641,137.000473 66.732338,141.632477
	C71.395645,148.404419 71.916008,148.537216 79.576180,144.212997
z"/>
<path fill="#F4F7F9" opacity="1.000000" stroke="none"
	d="
M240.906494,171.322372
	C244.438736,170.213501 247.887817,169.657990 250.563324,167.915009
	C256.677063,163.932205 258.603851,158.101425 256.422089,152.460144
	C254.245712,146.832718 248.260422,144.004578 241.408813,143.971436
	C235.893204,143.944794 229.925369,143.629929 224.958344,141.540649
	C210.012070,135.253708 205.784836,119.109596 214.038162,102.706085
	C223.348831,84.201073 248.994324,77.211937 264.705750,88.939301
	C270.077271,92.948730 272.614990,98.696075 273.640900,105.068764
	C273.825073,106.212959 272.301788,108.456429 271.128571,108.835365
	C267.997650,109.846588 264.634827,110.162628 261.351074,110.670113
	C259.076935,111.021584 257.171234,110.942429 256.492767,107.940758
	C254.954437,101.134949 245.284088,97.884880 235.694275,102.566368
	C228.783646,105.939949 225.319962,115.324806 228.733292,121.659218
	C230.697128,125.303680 233.803406,127.262947 238.039490,127.318771
	C242.360992,127.375710 246.733444,127.109383 250.993637,127.669205
	C270.789917,130.270569 277.209625,145.425125 273.405457,161.866592
	C267.953339,185.430161 242.489868,193.362442 223.419678,185.379211
	C215.278168,181.970963 211.352646,174.671173 210.377991,166.060257
	C210.239639,164.838043 212.014297,162.823822 213.382492,162.152893
	C215.076126,161.322372 217.268463,161.501328 219.247482,161.261887
	C223.660950,160.727936 227.477127,160.582001 229.439453,166.140396
	C231.135223,170.943817 236.168869,170.873001 240.906494,171.322372
z"/>
<path fill="#F5F7F9" opacity="1.000000" stroke="none"
	d="
M359.166809,139.000000
	C359.168976,118.016212 359.300751,97.530991 359.074677,77.049721
	C359.023224,72.386261 360.526825,70.593010 365.150848,70.091858
	C383.955017,68.053841 402.728607,65.730034 421.506256,63.452141
	C427.266205,62.753407 427.893188,63.208870 427.920746,68.923691
	C427.976501,80.492874 427.945587,80.134460 416.465393,81.123878
	C404.569733,82.149101 392.747345,84.008125 380.881470,85.405434
	C377.869232,85.760147 376.544861,87.023972 376.658447,90.213943
	C376.859802,95.868927 376.811340,101.538597 376.675415,107.197502
	C376.600677,110.308418 377.795135,111.337189 380.863403,110.932335
	C392.368042,109.414299 403.881012,107.941597 415.420074,106.730240
	C416.536499,106.613037 417.874603,108.396858 419.057800,109.361984
	C419.228394,109.501122 419.120178,110.000885 419.115356,110.333389
	C419.059845,114.159805 420.344849,118.925812 418.529266,121.525513
	C416.980072,123.743729 411.903107,123.719978 408.321991,124.253815
	C399.300659,125.598618 390.262604,126.898819 381.189453,127.793251
	C377.765778,128.130783 376.615265,129.268967 376.659302,132.646835
	C376.802521,143.636200 376.534729,154.632706 376.792694,165.617828
	C376.882935,169.461044 375.558014,171.008591 371.877350,171.422043
	C357.192902,173.071533 359.281250,175.408920 359.175781,160.982803
	C359.123444,153.822235 359.166687,146.660950 359.166809,139.000000
z"/>
<path fill="#F5F7FA" opacity="1.000000" stroke="none"
	d="
M117.128975,140.586090
	C115.013138,116.520996 133.873932,94.740997 158.299988,93.526344
	C176.152512,92.638596 191.240662,105.092407 193.032913,123.602722
	C195.456955,148.638000 172.913605,170.429260 149.562973,169.927887
	C134.013916,169.594040 119.856636,157.840881 117.793655,143.448975
	C117.676460,142.631378 117.389381,141.838120 117.128975,140.586090
M135.188538,127.005188
	C130.387192,140.949936 140.131500,154.034271 154.539185,152.988586
	C164.072632,152.296677 174.365356,142.736252 175.889404,133.297745
	C178.175522,119.139786 167.986603,109.409096 155.724854,110.759827
	C145.774643,111.855904 139.305084,117.288910 135.188538,127.005188
z"/>
<path fill="#F5F8FA" opacity="1.000000" stroke="none"
	d="
M517.633179,84.522202
	C518.987366,103.371117 507.067444,122.876221 487.608032,129.019073
	C468.408325,135.079956 449.766418,128.213425 442.768890,108.193291
	C438.173340,95.045273 444.222229,75.820129 455.362091,66.477432
	C462.369080,60.600857 470.118286,56.160107 479.275635,55.247757
	C499.255005,53.257191 512.991455,63.774357 517.633179,84.522202
M462.135834,107.250969
	C470.211243,115.675369 480.598358,116.680367 490.436401,109.778885
	C502.351349,101.420380 503.566010,84.062263 494.385956,76.480698
	C486.713806,70.144447 475.136017,70.589066 466.531586,77.959358
	C457.648132,85.568657 455.728882,97.119492 462.135834,107.250969
z"/>
<path fill="#F4F7FA" opacity="1.000000" stroke="none"
	d="
M550.156738,114.936905
	C527.851990,99.803925 531.918274,68.727318 551.665222,53.246986
	C564.392029,43.269974 581.821045,40.921902 593.742249,47.665318
	C609.780212,56.737438 615.857849,76.012810 608.164490,92.974632
	C601.326111,108.051521 585.510315,121.972351 565.022705,119.682388
	C560.067322,119.128510 555.324158,116.676170 550.156738,114.936905
M553.881470,75.646538
	C547.303284,87.730682 556.603760,104.098579 571.901306,103.082390
	C583.913086,102.284485 594.014465,91.817787 594.118103,79.752075
	C594.222168,67.626221 584.564331,59.354404 572.507751,61.111794
	C563.821228,62.377968 558.295410,67.713097 553.881470,75.646538
z"/>
<path fill="#F6F8F9" opacity="1.000000" stroke="none"
	d="
M323.687744,173.434937
	C322.691589,174.975601 321.903046,176.669922 320.679962,177.085602
	C307.974854,181.403580 306.254150,180.134354 306.254364,166.876617
	C306.254730,144.219147 306.175537,121.561157 306.327332,98.904709
	C306.355591,94.685287 305.578613,92.612846 300.757751,93.624222
	C296.879517,94.437836 292.853851,94.569130 288.886353,94.921677
	C287.922241,95.007347 286.094421,94.864944 286.073059,94.671593
	C285.607727,90.462967 285.025269,86.214355 285.262573,82.018532
	C285.321259,80.981125 288.086517,79.453857 289.743286,79.248917
	C306.879791,77.129158 324.041077,75.205818 341.208313,73.346466
	C342.266479,73.231857 344.374298,74.063293 344.400848,74.542702
	C344.628754,78.661392 344.671600,82.817062 344.295990,86.918297
	C344.226532,87.676651 342.082306,88.625076 340.795105,88.819290
	C337.183502,89.364189 333.523682,89.765976 329.874847,89.842918
	C325.318054,89.938995 323.553589,91.656311 323.596954,96.527069
	C323.823914,122.014664 323.697327,147.505402 323.687744,173.434937
z"/>
<path fill="#F3F6F8" opacity="1.000000" stroke="none"
	d="
M147.111847,181.100174
	C159.750870,179.660568 171.961929,178.426300 184.108139,176.728287
	C187.863281,176.203339 188.769547,177.228882 188.834717,180.740189
	C189.051514,192.419739 189.190247,192.729614 177.786133,194.326889
	C160.706314,196.719131 143.550079,198.561081 126.443848,200.772446
	C121.645798,201.392685 120.085518,199.768951 120.218483,194.853058
	C120.521156,183.663498 120.288315,183.763947 131.353256,182.989899
	C136.473526,182.631683 141.558105,181.763702 147.111847,181.100174
z"/>
<path fill="#F1F5F7" opacity="1.000000" stroke="none"
	d="
M565.570923,148.622971
	C557.874512,149.472916 550.610840,150.163788 543.371704,151.054153
	C539.733032,151.501709 538.327637,150.327164 538.276672,146.497589
	C538.129028,135.413910 537.959106,135.193619 548.680176,133.714127
	C565.584961,131.381271 582.525269,129.293121 599.471985,127.282265
	C606.569641,126.440079 606.826965,126.859627 606.835327,133.873123
	C606.847717,144.243134 606.826233,144.001404 596.125916,144.952209
	C586.061584,145.846497 576.049072,147.324921 565.570923,148.622971
z"/>
<path fill="#F3F6F8" opacity="1.000000" stroke="none"
	d="
M493.873840,140.086853
	C499.270660,139.410736 504.213287,138.784760 509.150879,138.121201
	C511.961853,137.743408 513.053711,138.891617 512.963623,141.743927
	C512.520142,155.779160 515.576904,154.640015 500.416870,156.081894
	C484.900635,157.557617 469.485870,160.072632 453.986572,161.765350
	C445.062042,162.740021 445.026276,162.412338 445.032196,153.531067
	C445.037201,145.999207 445.022308,145.879700 452.878082,144.901825
	C466.380371,143.221069 479.903290,141.705917 493.873840,140.086853
z"/>
<path fill="#5297CB" opacity="1.000000" stroke="none"
	d="
M79.248138,144.388306
	C71.916008,148.537216 71.395645,148.404419 66.732338,141.632477
	C63.542641,137.000473 60.190468,132.470642 57.240963,127.691460
	C56.675713,126.775566 57.525764,123.705925 57.929935,123.664795
	C63.650414,123.082718 69.434555,122.361061 75.145828,122.685280
	C80.103951,122.966728 84.700150,125.239601 85.831398,130.770004
	C87.015533,136.559021 84.584686,141.089951 79.248138,144.388306
z"/>
<path fill="#4B93C8" opacity="1.000000" stroke="none"
	d="
M135.322815,126.631195
	C139.305084,117.288910 145.774643,111.855904 155.724854,110.759827
	C167.986603,109.409096 178.175522,119.139786 175.889404,133.297745
	C174.365356,142.736252 164.072632,152.296677 154.539185,152.988586
	C140.131500,154.034271 130.387192,140.949936 135.322815,126.631195
z"/>
<path fill="#4B93C8" opacity="1.000000" stroke="none"
	d="
M461.954315,106.925354
	C455.728882,97.119492 457.648132,85.568657 466.531586,77.959358
	C475.136017,70.589066 486.713806,70.144447 494.385956,76.480698
	C503.566010,84.062263 502.351349,101.420380 490.436401,109.778885
	C480.598358,116.680367 470.211243,115.675369 461.954315,106.925354
z"/>
<path fill="#4A93C8" opacity="1.000000" stroke="none"
	d="
M554.002258,75.282585
	C558.295410,67.713097 563.821228,62.377968 572.507751,61.111794
	C584.564331,59.354404 594.222168,67.626221 594.118103,79.752075
	C594.014465,91.817787 583.913086,102.284485 571.901306,103.082390
	C556.603760,104.098579 547.303284,87.730682 554.002258,75.282585
z"/>
</svg>
